<svg xmlns="http://www.w3.org/2000/svg" xmlns:xlink="http://www.w3.org/1999/xlink" data-v-0dd9719b="" version="1.0" width="100%" height="100%" viewBox="0 0 340.000000 250.000000" preserveAspectRatio="xMidYMid meet" color-interpolation-filters="sRGB" style="margin: auto;">   <g data-v-0dd9719b="" class="iconmbgsvg" transform="translate(83.5425033569336,84.82683944702148)"><g fill="#ffffff" hollow-target="text"><g transform="translate(75.41499710083008,0)" mask="url(#1083490d-d226-4dbf-9ea8-2fad93e8b0e5)"><g><rect fill="#ffffff" fill-opacity="0" stroke-width="2" x="0" y="0" width="97.5" height="37.3301478273854" class="image-rect"/> <svg filter="url(#colors3965986764)" x="0" y="0" width="97.5" height="37.3301478273854" filtersec="colorsf3880428357" class="image-svg-svg primary" style="overflow: visible;"><svg xmlns="http://www.w3.org/2000/svg" viewBox="-0.000009066635357157793 -0.000008984595297079068 192.10003662109375 73.55001068115234"><g><path d="M186.5 73.5H5.6A5.59 5.59 0 0 1 0 67.9V5.6A5.59 5.59 0 0 1 5.6 0h180.9a5.59 5.59 0 0 1 5.6 5.6V68a5.65 5.65 0 0 1-5.6 5.55z"/></g></svg></svg> <defs><filter id="colors3965986764"><feColorMatrix type="matrix" values="0 0 0 0 0.02734375  0 0 0 0 0.171875  0 0 0 0 0.484375  0 0 0 1 0" class="icon-fecolormatrix"/></filter> <filter id="colorsf3880428357"><feColorMatrix type="matrix" values="0 0 0 0 0.99609375  0 0 0 0 0.99609375  0 0 0 0 0.99609375  0 0 0 1 0" class="icon-fecolormatrix"/></filter> <filter id="colorsb7934834724"><feColorMatrix type="matrix" values="0 0 0 0 0  0 0 0 0 0  0 0 0 0 0  0 0 0 1 0" class="icon-fecolormatrix"/></filter></defs></g></g> <g transform="translate(0,27.983823776245117)"><g data-gra="path-name" fill-rule="" class="tp-name" transform="translate(0,0)"><g transform="scale(1)"><g><path d="M27.79 0L3.93 0 3.93-36.41 13.77-36.41 13.77-7.94 27.79-7.94 27.79 0ZM57.47 0L33.62 0 33.62-36.41 43.45-36.41 43.45-7.94 57.47-7.94 57.47 0ZM73.19 0L63.3 0 63.3-36.41 73.19-36.41 73.19 0ZM90.94 0L81.06 0 81.06-36.41 90.94-36.41 90.94 0ZM114.2-17.85L119.26-36.41 130.26-36.41 118.34 0 106.76 0 94.88-36.41 105.93-36.41 110.89-17.95Q112.43-11.8 112.58-9.39L112.58-9.39Q112.76-11.13 113.28-13.75 113.8-16.36 114.2-17.85L114.2-17.85Z" transform="translate(-3.930000066757202, 36.40999984741211)"/></g> <!----> <!----> <!----> <!----> <!----> <!----> <!----></g></g> <g data-gra="path-slogan" fill-rule="" class="tp-slogan" fill="#ffffff" transform="translate(2.5549964904785156,43.40999984741211)"><!----> <!----> <g transform="scale(1, 1)"><g transform="scale(1)"><path d="M0.89-8.58L2.06-8.58L2.06-1.03L6.42-1.03L6.42 0L0.89 0L0.89-8.58ZM16.22 0L15.38-2.48L11.91-2.48L11.02 0L9.84 0L13.08-8.58L14.39-8.58L17.48 0L16.22 0ZM13.64-7.31L12.28-3.52L14.95-3.52L13.69-7.31L13.64-7.31ZM22.92-8.58L27.23-1.64L27.23-8.58L28.36-8.58L28.36 0L27.05 0L22.69-6.94L22.64-6.94L22.64 0L21.52 0L21.52-8.58L22.92-8.58ZM36.66 0L33.19 0L33.19-8.58L36.70-8.58Q40.17-8.39 40.31-4.41L40.31-4.41Q40.13-0.09 36.66 0L36.66 0ZM36.52-7.64L34.36-7.64L34.36-0.98L36.61-0.98Q39.05-1.13 39.14-4.31L39.14-4.31Q39.09-7.55 36.52-7.64L36.52-7.64ZM44.95-8.58L46.13-8.58L46.13 0L44.95 0L44.95-8.58ZM52.50-8.58L56.81-1.64L56.81-8.58L57.94-8.58L57.94 0L56.63 0L52.27-6.94L52.22-6.94L52.22 0L51.09 0L51.09-8.58L52.50-8.58ZM69.14-3.61L66.52-3.61L66.52-4.59L70.27-4.59L70.27 0L69.52 0L69.23-1.08Q68.25 0.09 66.42 0.14L66.42 0.14Q64.69 0.14 63.75-0.75L63.75-0.75Q62.34-2.06 62.39-4.36L62.39-4.36Q62.72-8.63 66.47-8.81L66.47-8.81Q69.66-8.63 70.13-6L70.13-6L69-6Q68.53-7.78 66.42-7.83L66.42-7.83Q63.75-7.64 63.61-4.31L63.61-4.31Q63.61-0.75 66.47-0.75L66.47-0.75Q67.50-0.75 68.25-1.31L68.25-1.31Q69.19-2.06 69.14-3.61L69.14-3.61ZM85.03-7.64L82.69-7.64L82.69-4.64L84.98-4.64Q86.77-4.64 86.77-6.19L86.77-6.19Q86.77-7.59 85.03-7.64L85.03-7.64ZM85.41-3.61L82.69-3.61L82.69 0L81.52 0L81.52-8.58L85.41-8.58Q87.84-8.48 87.94-6.19L87.94-6.19Q87.80-3.70 85.41-3.61L85.41-3.61ZM98.02 0L97.17-2.48L93.70-2.48L92.81 0L91.64 0L94.88-8.58L96.19-8.58L99.28 0L98.02 0ZM95.44-7.31L94.08-3.52L96.75-3.52L95.48-7.31L95.44-7.31ZM109.73-3.61L107.11-3.61L107.11-4.59L110.86-4.59L110.86 0L110.11 0L109.83-1.08Q108.84 0.09 107.02 0.14L107.02 0.14Q105.28 0.14 104.34-0.75L104.34-0.75Q102.94-2.06 102.98-4.36L102.98-4.36Q103.31-8.63 107.06-8.81L107.06-8.81Q110.25-8.63 110.72-6L110.72-6L109.59-6Q109.13-7.78 107.02-7.83L107.02-7.83Q104.34-7.64 104.20-4.31L104.20-4.31Q104.20-0.75 107.06-0.75L107.06-0.75Q108.09-0.75 108.84-1.31L108.84-1.31Q109.78-2.06 109.73-3.61L109.73-3.61ZM116.95-1.03L122.11-1.03L122.11 0L115.78 0L115.78-8.58L122.02-8.58L122.02-7.59L116.95-7.59L116.95-4.92L121.64-4.92L121.64-3.89L116.95-3.89L116.95-1.03Z" transform="translate(-0.890625, 8.8125)"/></g></g></g></g></g></g><defs v-gra="od"/></svg>