<svg data-v-0dd9719b="" version="1.0" xmlns="http://www.w3.org/2000/svg" xmlns:xlink="http://www.w3.org/1999/xlink" width="100%" height="100%" viewBox="0 0 340.000000 250.000000" preserveAspectRatio="xMidYMid meet" color-interpolation-filters="sRGB" style="margin: auto;"> <rect data-v-0dd9719b="" x="0" y="0" width="100%" height="100%" fill="#fff" fill-opacity="1" class="background"></rect> <rect data-v-0dd9719b="" x="0" y="0" width="100%" height="100%" fill="url(#watermark)" fill-opacity="1" class="watermarklayer"></rect> <g data-v-0dd9719b="" fill="#2a3e8f" class="icon-text-wrapper icon-svg-group iconsvg" transform="translate(73.69000244140625,79.94006729125977)"><g class="iconsvg-imagesvg" transform="translate(0,0)"><g><rect fill="#2a3e8f" fill-opacity="0" stroke-width="2" x="0" y="0" width="59.99999999999999" height="90.1198594130193" class="image-rect"></rect> <svg x="0" y="0" width="59.99999999999999" height="90.1198594130193" filtersec="colorsb9717029864" class="image-svg-svg primary" style="overflow: visible;"><svg xmlns="http://www.w3.org/2000/svg" viewBox="0 0 100 150.1999969482422"><g><g><g><path fill="#4284c5" d="M0 0v50.2h17.5V17.8h5v32.4H100V0H0z"></path><path fill="#8c7ebb" d="M22.5 125.5h60v5h-65V100H0v50.2h100V100H22.5v25.5z"></path><path fill="#4284c5" d="M0 50.2h17.5v49.82H0zM22.5 50.2H100v49.82H22.5z"></path><path d="M17.5 100H0V50.2h17.5zm5 0H100V50.2H22.5z" fill="#2a3e8f"></path></g></g></g></svg></svg> <!----></g></g> <g transform="translate(67,16.668684005737305)"><g data-gra="path-name" fill-rule="" class="tp-name iconsvg-namesvg" transform="translate(0,0)"><g transform="scale(1)"><g><path d="M15.29-15.53L27.19-15.53 25.96-2.52 1.29-0.59 2.23-42.42 17.46-42.42 15.29-15.53ZM42.36-15.53L54.26-15.53 53.03-2.52 28.36-0.59 29.3-42.42 44.53-42.42 42.36-15.53ZM55.34-40.43L70.93-41.25 68.88-1.35 56.51-0.7 55.34-40.43ZM73.01-40.43L88.59-41.25 86.54-1.35 74.18-0.7 73.01-40.43ZM113.44-41.95L126.91-41.07 116.19-1.46 101.66-0.64 88.48-38.91 102.36-40.2 107.99-17.93 113.44-41.95Z" transform="translate(-1.2899999618530273, 42.41999816894531)"></path></g> <!----> <!----> <!----> <!----> <!----> <!----> <!----></g></g> <g data-gra="path-slogan" fill-rule="" class="tp-slogan iconsvg-slogansvg" fill="#2a3e8f" transform="translate(4.999996185302734,47.82999801635742)"><rect x="0" height="1" y="3.9750003814697266" width="10.700000762939453"></rect> <rect height="1" y="3.9750003814697266" width="10.700000762939453" x="104.92000198364258"></rect> <g transform="translate(13.700000762939453,0)"><g transform="scale(1)"><path d="M0.89-8.58L2.06-8.58L2.06-1.03L6.42-1.03L6.42 0L0.89 0L0.89-8.58ZM13.22 0L12.38-2.48L8.91-2.48L8.02 0L6.84 0L10.08-8.58L11.39-8.58L14.48 0L13.22 0ZM10.64-7.31L9.28-3.52L11.95-3.52L10.69-7.31L10.64-7.31ZM16.92-8.58L21.23-1.64L21.23-8.58L22.36-8.58L22.36 0L21.05 0L16.69-6.94L16.64-6.94L16.64 0L15.52 0L15.52-8.58L16.92-8.58ZM27.66 0L24.19 0L24.19-8.58L27.70-8.58Q31.17-8.39 31.31-4.41L31.31-4.41Q31.13-0.09 27.66 0L27.66 0ZM27.52-7.64L25.36-7.64L25.36-0.98L27.61-0.98Q30.05-1.13 30.14-4.31L30.14-4.31Q30.09-7.55 27.52-7.64L27.52-7.64ZM32.95-8.58L34.13-8.58L34.13 0L32.95 0L32.95-8.58ZM37.50-8.58L41.81-1.64L41.81-8.58L42.94-8.58L42.94 0L41.63 0L37.27-6.94L37.22-6.94L37.22 0L36.09 0L36.09-8.58L37.50-8.58ZM51.14-3.61L48.52-3.61L48.52-4.59L52.27-4.59L52.27 0L51.52 0L51.23-1.08Q50.25 0.09 48.42 0.14L48.42 0.14Q46.69 0.14 45.75-0.75L45.75-0.75Q44.34-2.06 44.39-4.36L44.39-4.36Q44.72-8.63 48.47-8.81L48.47-8.81Q51.66-8.63 52.13-6L52.13-6L51-6Q50.53-7.78 48.42-7.83L48.42-7.83Q45.75-7.64 45.61-4.31L45.61-4.31Q45.61-0.75 48.47-0.75L48.47-0.75Q49.50-0.75 50.25-1.31L50.25-1.31Q51.19-2.06 51.14-3.61L51.14-3.61ZM61.03-7.64L58.69-7.64L58.69-4.64L60.98-4.64Q62.77-4.64 62.77-6.19L62.77-6.19Q62.77-7.59 61.03-7.64L61.03-7.64ZM61.41-3.61L58.69-3.61L58.69 0L57.52 0L57.52-8.58L61.41-8.58Q63.84-8.48 63.94-6.19L63.94-6.19Q63.80-3.70 61.41-3.61L61.41-3.61ZM71.02 0L70.17-2.48L66.70-2.48L65.81 0L64.64 0L67.88-8.58L69.19-8.58L72.28 0L71.02 0ZM68.44-7.31L67.08-3.52L69.75-3.52L68.48-7.31L68.44-7.31ZM79.73-3.61L77.11-3.61L77.11-4.59L80.86-4.59L80.86 0L80.11 0L79.83-1.08Q78.84 0.09 77.02 0.14L77.02 0.14Q75.28 0.14 74.34-0.75L74.34-0.75Q72.94-2.06 72.98-4.36L72.98-4.36Q73.31-8.63 77.06-8.81L77.06-8.81Q80.25-8.63 80.72-6L80.72-6L79.59-6Q79.13-7.78 77.02-7.83L77.02-7.83Q74.34-7.64 74.20-4.31L74.20-4.31Q74.20-0.75 77.06-0.75L77.06-0.75Q78.09-0.75 78.84-1.31L78.84-1.31Q79.78-2.06 79.73-3.61L79.73-3.61ZM83.95-1.03L89.11-1.03L89.11 0L82.78 0L82.78-8.58L89.02-8.58L89.02-7.59L83.95-7.59L83.95-4.92L88.64-4.92L88.64-3.89L83.95-3.89L83.95-1.03Z" transform="translate(-0.890625, 8.8125)"></path></g></g></g></g></g><defs v-gra="od"></defs></svg>